<svg xmlns="http://www.w3.org/2000/svg" width="19" height="19" viewBox="0 0 19 19" fill="none">
  <path d="M11.875 2.37496C12.901 2.37496 13.851 2.69954 14.6276 3.25371L7.39654 10.484C7.32093 10.557 7.26062 10.6444 7.21913 10.741C7.17764 10.8376 7.1558 10.9414 7.15488 11.0466C7.15397 11.1517 7.174 11.2559 7.21381 11.3532C7.25361 11.4505 7.3124 11.5389 7.38673 11.6132C7.46106 11.6876 7.54945 11.7463 7.64675 11.7862C7.74404 11.826 7.84828 11.846 7.9534 11.8451C8.05852 11.8442 8.1624 11.8223 8.25899 11.7808C8.35557 11.7393 8.44293 11.679 8.51596 11.6034L15.747 4.37234C16.3184 5.17645 16.6253 6.13851 16.625 7.12496V15.0416C16.625 15.4616 16.4582 15.8643 16.1613 16.1612C15.8643 16.4581 15.4616 16.625 15.0417 16.625H3.95833C3.53841 16.625 3.13568 16.4581 2.83875 16.1612C2.54181 15.8643 2.375 15.4616 2.375 15.0416V3.95829C2.375 3.53837 2.54181 3.13564 2.83875 2.83871C3.13568 2.54178 3.53841 2.37496 3.95833 2.37496H11.875ZM17.1451 1.85484C17.2935 2.0033 17.3769 2.20462 17.3769 2.41454C17.3769 2.62447 17.2935 2.82579 17.1451 2.97425L15.7463 4.37234C15.4384 3.93921 15.06 3.56081 14.6268 3.25292L16.0249 1.85484C16.1734 1.70642 16.3747 1.62305 16.5846 1.62305C16.7945 1.62305 16.9967 1.70642 17.1451 1.85484Z" fill="#8AB59D"/>
</svg>