<svg xmlns="http://www.w3.org/2000/svg" width="70" height="116" viewBox="0 0 70 116" fill="none">
<ellipse cx="35" cy="58" rx="35" ry="37" fill="#3C69A9"/>
<path d="M49.8594 41.5227C49.4957 38.2955 47.9957 35.7955 45.3594 34.0227C42.723 32.2273 39.4048 31.3295 35.4048 31.3295C32.5412 31.3295 30.0639 31.7841 27.973 32.6932C25.8821 33.5795 24.2571 34.8068 23.098 36.375C21.9616 37.9205 21.3935 39.6818 21.3935 41.6591C21.3935 43.3182 21.7798 44.75 22.5526 45.9545C23.348 47.1591 24.3821 48.1705 25.6548 48.9886C26.9503 49.7841 28.3366 50.4545 29.8139 51C31.2912 51.5227 32.7116 51.9545 34.0753 52.2955L40.8935 54.0682C43.1207 54.6136 45.4048 55.3523 47.7457 56.2841C50.0866 57.2159 52.2571 58.4432 54.2571 59.9659C56.2571 61.4886 57.8707 63.375 59.098 65.625C60.348 67.875 60.973 70.5682 60.973 73.7045C60.973 77.6591 59.9503 81.1705 57.9048 84.2386C55.8821 87.3068 52.9389 89.7273 49.0753 91.5C45.2344 93.2727 40.5866 94.1591 35.1321 94.1591C29.9048 94.1591 25.3821 93.3295 21.5639 91.6705C17.7457 90.0114 14.7571 87.6591 12.598 84.6136C10.4389 81.5455 9.24574 77.9091 9.01847 73.7045H19.5866C19.7912 76.2273 20.6094 78.3295 22.0412 80.0114C23.4957 81.6705 25.348 82.9091 27.598 83.7273C29.8707 84.5227 32.3594 84.9205 35.0639 84.9205C38.0412 84.9205 40.6889 84.4545 43.0071 83.5227C45.348 82.5682 47.1889 81.25 48.5298 79.5682C49.8707 77.8636 50.5412 75.875 50.5412 73.6023C50.5412 71.5341 49.9503 69.8409 48.7685 68.5227C47.6094 67.2045 46.0298 66.1136 44.0298 65.25C42.0526 64.3864 39.8139 63.625 37.3139 62.9659L29.0639 60.7159C23.473 59.1932 19.0412 56.9545 15.7685 54C12.5185 51.0455 10.8935 47.1364 10.8935 42.2727C10.8935 38.25 11.9844 34.7386 14.1662 31.7386C16.348 28.7386 19.3026 26.4091 23.0298 24.75C26.7571 23.0682 30.9616 22.2273 35.6435 22.2273C40.3707 22.2273 44.5412 23.0568 48.1548 24.7159C51.7912 26.375 54.6548 28.6591 56.7457 31.5682C58.8367 34.4545 59.9276 37.7727 60.0185 41.5227H49.8594Z" fill="white"/>
</svg>