<svg xmlns="http://www.w3.org/2000/svg" width="20" height="20" viewBox="0 0 20 20" fill="none">
  <path d="M9.16667 5.83325H14.1667M5.83333 5.83325H6.66667M5.83333 9.99992H6.66667M5.83333 14.1666H6.66667M9.16667 9.99992H14.1667M9.16667 14.1666H14.1667M2.08333 9.99992C2.08333 6.26825 2.08333 4.40159 3.2425 3.24242C4.40167 2.08325 6.2675 2.08325 10 2.08325C13.7317 2.08325 15.5983 2.08325 16.7575 3.24242C17.9167 4.40159 17.9167 6.26742 17.9167 9.99992C17.9167 13.7316 17.9167 15.5983 16.7575 16.7574C15.5983 17.9166 13.7325 17.9166 10 17.9166C6.26833 17.9166 4.40167 17.9166 3.2425 16.7574C2.08333 15.5983 2.08333 13.7324 2.08333 9.99992Z" stroke="#B2CAEC" stroke-width="1.5" stroke-linecap="round" stroke-linejoin="round"/>
</svg>