<svg xmlns="http://www.w3.org/2000/svg" width="24" height="26" viewBox="0 0 24 26" fill="none">
<path opacity="0.5" d="M16 2.302H15C12.171 2.302 10.758 2.302 9.879 3.22858C9 4.15516 9 5.64571 9 8.62679V17.0598C9 20.042 9 21.5325 9.879 22.4591C10.757 23.3846 12.171 23.3846 14.998 23.3846H16C18.828 23.3846 20.242 23.3846 21.121 22.458C22 21.5325 22 20.0409 22 17.0598V8.62679C22 5.64571 22 4.15411 21.121 3.22858C20.242 2.30306 18.828 2.302 16 2.302Z" fill="#3C69A9"/>
<path fill-rule="evenodd" clip-rule="evenodd" d="M1.25098 12.8423C1.25098 12.6326 1.32999 12.4315 1.47065 12.2833C1.6113 12.135 1.80206 12.0517 2.00098 12.0517H13.974L12.013 10.2808C11.9381 10.2132 11.8766 10.1308 11.832 10.0382C11.7874 9.94555 11.7605 9.84458 11.7529 9.74102C11.7375 9.53187 11.8015 9.32484 11.931 9.16548C12.0604 9.00613 12.2446 8.90749 12.443 8.89128C12.6414 8.87507 12.8378 8.94261 12.989 9.07904L16.489 12.2414C16.5713 12.3157 16.6374 12.4078 16.6827 12.5115C16.7281 12.6152 16.7515 12.7281 16.7515 12.8423C16.7515 12.9565 16.7281 13.0693 16.6827 13.1731C16.6374 13.2768 16.5713 13.3689 16.489 13.4431L12.989 16.6055C12.8378 16.742 12.6414 16.8095 12.443 16.7933C12.2446 16.7771 12.0604 16.6785 11.931 16.5191C11.8015 16.3597 11.7375 16.1527 11.7529 15.9436C11.7682 15.7344 11.8618 15.5403 12.013 15.4038L13.973 13.6329H2.00198C1.80306 13.6329 1.6123 13.5496 1.47165 13.4013C1.33099 13.2531 1.25098 13.052 1.25098 12.8423Z" fill="#3C69A9"/>
</svg>