<svg xmlns="http://www.w3.org/2000/svg" width="20" height="20" viewBox="0 0 20 20" fill="none">
  <path d="M10.1933 2.70825H8.14C7.4625 2.70825 6.91583 2.70825 6.47333 2.74409C6.01833 2.78159 5.61833 2.86075 5.24833 3.04909C4.65993 3.34856 4.1815 3.8267 3.88167 4.41492C3.69333 4.78492 3.615 5.18492 3.5775 5.63992C3.54167 6.08242 3.54167 6.62908 3.54167 7.30658V12.6933C3.54167 13.3708 3.54167 13.9174 3.5775 14.3599C3.615 14.8149 3.69417 15.2149 3.8825 15.5849C4.18198 16.1733 4.66012 16.6517 5.24833 16.9516C5.61833 17.1399 6.01833 17.2183 6.47333 17.2558C6.91583 17.2916 7.4625 17.2916 8.14 17.2916H10.1933C10.8708 17.2916 11.4175 17.2916 11.86 17.2558C12.315 17.2183 12.715 17.1391 13.085 16.9508C13.6734 16.6513 14.1518 16.1731 14.4517 15.5849C14.64 15.2149 14.7183 14.8149 14.7558 14.3599C14.7917 13.9174 14.7917 13.3708 14.7917 12.6933V12.4999C14.7917 12.3342 14.7258 12.1752 14.6086 12.058C14.4914 11.9408 14.3324 11.8749 14.1667 11.8749C14.0009 11.8749 13.8419 11.9408 13.7247 12.058C13.6075 12.1752 13.5417 12.3342 13.5417 12.4999V12.6666C13.5417 13.3766 13.5417 13.8724 13.51 14.2583C13.4783 14.6358 13.4208 14.8533 13.3375 15.0183C13.1575 15.3708 12.8708 15.6574 12.5183 15.8374C12.3533 15.9208 12.1358 15.9791 11.7575 16.0099C11.3725 16.0408 10.8775 16.0416 10.1667 16.0416H8.16667C7.45667 16.0416 6.96083 16.0416 6.575 16.0099C6.1975 15.9783 5.98 15.9208 5.81583 15.8374C5.46284 15.6578 5.17579 15.3711 4.99583 15.0183C4.9125 14.8533 4.85417 14.6358 4.82333 14.2574C4.7925 13.8724 4.79167 13.3766 4.79167 12.6666V7.33325C4.79167 6.62325 4.79167 6.12742 4.82333 5.74159C4.85417 5.36409 4.9125 5.14659 4.99583 4.98242C5.17565 4.6293 5.46272 4.34223 5.81583 4.16242C5.98 4.07909 6.1975 4.02075 6.57583 3.98992C6.96083 3.95909 7.45667 3.95825 8.16667 3.95825H10.1667C10.8775 3.95825 11.3725 3.95825 11.7583 3.98992C12.1358 4.02075 12.3533 4.07909 12.5183 4.16242C12.8708 4.34242 13.1575 4.62909 13.3375 4.98242C13.4208 5.14659 13.4792 5.36408 13.51 5.74242C13.5408 6.12742 13.5417 6.62325 13.5417 7.33325V7.49992C13.5417 7.66568 13.6075 7.82465 13.7247 7.94186C13.8419 8.05907 14.0009 8.12492 14.1667 8.12492C14.3324 8.12492 14.4914 8.05907 14.6086 7.94186C14.7258 7.82465 14.7917 7.66568 14.7917 7.49992V7.30658C14.7917 6.62908 14.7917 6.08242 14.7558 5.63992C14.7183 5.18492 14.6392 4.78492 14.4508 4.41492C14.1514 3.82652 13.6732 3.34809 13.085 3.04825C12.715 2.85992 12.315 2.78159 11.86 2.74409C11.4175 2.70825 10.8708 2.70825 10.1933 2.70825Z" fill="#B2CAEC"/>
  <path d="M10.3917 7.0583C10.4489 6.99689 10.5179 6.94764 10.5946 6.91348C10.6712 6.87932 10.754 6.86095 10.8379 6.85947C10.9218 6.85799 11.0052 6.87343 11.083 6.90486C11.1608 6.9363 11.2315 6.98308 11.2909 7.04243C11.3502 7.10178 11.397 7.17248 11.4284 7.2503C11.4599 7.32812 11.4753 7.41148 11.4738 7.4954C11.4723 7.57932 11.454 7.66208 11.4198 7.73875C11.3857 7.81541 11.3364 7.88441 11.275 7.94163L9.84167 9.37497H16.6667C16.8324 9.37497 16.9914 9.44081 17.1086 9.55802C17.2258 9.67523 17.2917 9.83421 17.2917 9.99997C17.2917 10.1657 17.2258 10.3247 17.1086 10.4419C16.9914 10.5591 16.8324 10.625 16.6667 10.625H9.84167L11.275 12.0583C11.3364 12.1155 11.3857 12.1845 11.4198 12.2612C11.454 12.3379 11.4723 12.4206 11.4738 12.5045C11.4753 12.5884 11.4599 12.6718 11.4284 12.7496C11.397 12.8275 11.3502 12.8981 11.2909 12.9575C11.2315 13.0168 11.1608 13.0636 11.083 13.0951C11.0052 13.1265 10.9218 13.1419 10.8379 13.1405C10.754 13.139 10.6712 13.1206 10.5946 13.0865C10.5179 13.0523 10.4489 13.003 10.3917 12.9416L7.89167 10.4416C7.77462 10.3244 7.70888 10.1656 7.70888 9.99997C7.70888 9.83434 7.77462 9.67549 7.89167 9.5583L10.3917 7.0583Z" fill="#B2CAEC"/>
</svg>